<svg version="1" xmlns="http://www.w3.org/2000/svg" width="1049.333" height="1049.333" viewBox="0 0 787.000000 787.000000"><path d="M284.7 7.6c-27.2 4.9-45.5 19.2-59.1 46.3-8.2 16.1-13.2 32.3-22.1 71.1-14.5 62.9-19 91.9-30.5 194.5-5.8 52.2-9.1 78.5-12.6 101.5-19.5 129-24.9 173.8-26.1 216.1-.7 25.4.4 37.6 4.4 50.4 4.7 14.9 11.5 25.7 23.1 36.6 19.1 18.1 36.5 24.4 85.7 30.9 56.2 7.4 71.9 9.3 118.5 14 27.2 2.8 58.7 6.1 70 7.5 41 4.9 60.1 5.6 79 3 33.3-4.5 54-18.4 66-44 4.6-9.8 8-21.6 11.9-41.1 3-15 4.2-23.8 10.6-74.9 1.9-15.4 5.5-43.8 8-63C626.7 438.9 651 190.1 651 152.3c0-50.7-17.5-81.4-57.7-100.9C562 36.3 492.6 21.9 410.5 13.5c-69.4-7-109.2-8.9-125.8-5.9zm61.9 20.9c6.5.8 17.1 2.4 23.4 3.5 6.3 1.1 21.9 3.1 34.5 4.5 51.5 5.8 115.3 16 143 23 55.2 13.9 76.1 33.7 80.6 76.4 1.2 12.2.9 19.8-3.2 69.6C613.2 349 598.7 485.4 583 599c-1.6 11.8-4.1 31.8-5.5 44.5-4 35.8-7.1 53.1-12.5 69-6.4 19-16.2 31-31.2 38.4-11.2 5.6-19.2 7.2-38.8 7.8-14.2.4-19.2.1-35.5-2.1-24.8-3.4-45.3-5.7-94.5-10.6-63.5-6.3-87.8-9.4-119.5-15.1-40.7-7.2-60.1-15.2-74.8-30.8-13.7-14.6-17.9-32.4-14.7-63 .6-5.1 1.9-19.3 3-31.5 3.6-39.1 13.8-115.9 25-187.1 8.5-54.3 14.5-100.7 20.5-158 6.2-58.5 10.5-85.1 22-134 8.7-37 14.8-54.5 24-68.5 6.1-9.5 11.6-15.2 19.4-20.4 8.6-5.6 13.5-7.5 25.6-9.7 11.7-2.2 31.5-1.9 51.1.6z"/><path d="M391.7 75.9c-5.6 6.7-2.2 13.5 7.4 14.5 3 .4 17.8 2 32.9 3.7 15.1 1.6 31.9 3.6 37.2 4.4 14.1 2.1 18 2 20.6-.8 3.1-3.3 3-9.6-.2-12.6-2-1.9-4.8-2.6-15.8-4.1-20.6-2.9-58.2-7-69.3-7.7l-10.1-.6-2.7 3.2zM507.9 89.9c-3.7 3.7-3.8 7.9-.3 12 2 2.4 3.4 3.1 6.1 3.1 4.6 0 9.3-4.5 9.3-9 0-2.2-.9-4.1-2.9-6.1S516.2 87 514 87c-2.2 0-4.1.9-6.1 2.9zM541.9 93.5c-8 4.3-4.5 16.5 4.7 16.5 3.9 0 7.9-3.1 8.8-6.6 1-3.7-1.1-8.2-4.5-9.9-3.5-1.8-5.6-1.8-9 0zM247.5 103.8c-5.5 1.1-6.9 4.7-10.9 27.4-5.3 29.8-9 57.2-16 120.8-8.5 75.8-11.1 95.3-20.2 149-23.2 137.6-26.7 159.2-31.9 200.4-3.9 30.7-4.3 36.3-2.7 39.3 1.7 3 5.3 4 20.7 5.8 7.7.9 36.5 4.7 64 8.5 61.3 8.4 76.6 10.3 111 13.5 33.4 3.1 54.4 5.8 108 14 54.6 8.4 81.8 11.9 86.1 11.1 1.9-.4 4-1.7 4.8-2.9.9-1.3 2.1-8.8 3.1-19.2 5.7-60.3 13.9-132.3 29-255.5 12.3-100.6 20.6-172.7 26.4-231.5l2.7-28-2-2.8c-1.1-1.5-3.6-3.1-5.5-3.7-4.1-1-62.7-8.3-133.1-16.5-103.5-12.1-210.1-25.9-230-29.8-.8-.2-2.4-.1-3.5.1zM312.4 677.1c-18.6 4.4-28.5 26.1-17.7 38.9 7.7 9.2 22 13.9 53.3 17.5 45.5 5.3 61.1 2.9 68-10.5 2.4-4.8 3.4-13.7 2.1-18.7-3.4-12.6-13.9-18.8-37.3-21.9-6.7-.8-17.9-2.5-24.8-3.6-14-2.3-37.4-3.2-43.6-1.7zm44.1 19.9c38.6 5.7 47.3 8.9 43.5 16-.7 1.2-3 3-5.3 4.1-6.1 2.7-17.6 2.4-43.4-1.1-38.5-5.3-42.8-6.8-40.9-14.6 1.9-7.5 15.8-8.8 46.1-4.4z"/></svg>