<?xml version="1.0" encoding="iso-8859-1"?>
<!-- Generator: Adobe Illustrator 19.0.0, SVG Export Plug-In . SVG Version: 6.00 Build 0)  -->
<svg version="1.1" id="Layer_1" xmlns="http://www.w3.org/2000/svg" xmlns:xlink="http://www.w3.org/1999/xlink" x="0px" y="0px"
	 viewBox="0 0 511.999 511.999" style="enable-background:new 0 0 511.999 511.999;" xml:space="preserve">
<path style="fill:#9CE0F2;" d="M95.409,83.515C61.575,137.292-23.65,283.853,21.626,329.129s191.837-39.949,245.623-73.774
	l0.009-0.009"/>
<g>
	<path style="fill:#A3E261;" d="M300.043,222.884l196.505,196.505c8.912,8.912,8.912,23.361,0,32.273l0,0
		c-8.912,8.912-23.361,8.912-32.273,0L267.76,255.149"/>
	
		<ellipse transform="matrix(-0.7071 -0.7071 0.7071 -0.7071 229.5473 400.9677)" style="fill:#A3E261;" cx="197.817" cy="152.943" rx="126.495" ry="83.699"/>
</g>
<path style="fill:#8BCAD8;" d="M265.744,220.859c-17.812,17.812-65.555,9.765-105.582-30.263
	c-40.029-40.029-48.076-87.77-30.264-105.582c17.813-17.813,65.555-9.765,105.583,30.263
	C275.509,155.303,283.556,203.045,265.744,220.859z"/>
<g>
	<path style="fill:#FFA91F;" d="M441.401,112.306c4.898,7.973,2.408,18.412-5.564,23.321c-7.973,4.898-18.412,2.408-23.31-5.564
		c-4.91-7.973-2.42-18.412,5.553-23.321c0.69-0.421,1.403-0.795,2.128-1.111C427.829,102.311,436.924,105.023,441.401,112.306z"/>
	<path style="fill:#FFA91F;" d="M412.527,130.063c4.898,7.973,2.408,18.412-5.564,23.321c-7.973,4.898-18.412,2.408-23.321-5.564
		c-4.314-7.026-2.899-15.968,2.969-21.357c0.783-0.725,1.648-1.379,2.595-1.964C397.178,119.601,407.617,122.091,412.527,130.063z"
		/>
</g>
<g>
	<path style="fill:#F94848;" d="M420.009,105.175c-10.381,4.173-22.55,0.386-28.605-9.457c-6.757-11-3.332-25.39,7.669-32.147
		c10.988-6.757,25.39-3.332,32.147,7.669c6.757,10.989,3.32,25.379-7.669,32.147C422.405,104.088,421.213,104.684,420.009,105.175z"
		/>
	<path style="fill:#F94848;" d="M391.403,95.718c6.207,10.088,3.823,23.052-5.132,30.347c-0.795,0.643-1.637,1.251-2.537,1.8
		c-10.989,6.757-25.379,3.32-32.147-7.669c-6.757-11-3.32-25.39,7.669-32.147C370.256,81.293,384.647,84.718,391.403,95.718z"/>
</g>
<g>
	<path style="fill:#FFD41D;" d="M237.765,437.159c6.09,5.822,7.014,15.407,1.859,22.339c-5.588,7.517-16.202,9.083-23.707,3.495
		c-7.517-5.588-9.083-16.214-3.495-23.719c5.588-7.517,16.202-9.071,23.719-3.484C236.713,436.224,237.263,436.68,237.765,437.159z"
		/>
	<path style="fill:#FFD41D;" d="M208.938,415.556c7.517,5.588,9.071,16.202,3.484,23.719c-5.588,7.505-16.202,9.071-23.719,3.484
		c-7.505-5.588-9.071-16.202-3.484-23.719c5.027-6.745,14.11-8.697,21.357-4.956C207.383,414.504,208.178,414.995,208.938,415.556z"
		/>
</g>
<g>
	<path style="fill:#3EDDB3;" d="M269.176,402.113c10.357,7.704,12.508,22.339,4.816,32.697
		c-7.704,10.357-22.339,12.508-32.697,4.805c-1.157-0.865-2.209-1.812-3.156-2.829c-7.563-8.089-8.499-20.668-1.66-29.868
		C244.183,396.56,258.831,394.409,269.176,402.113z"/>
	<path style="fill:#3EDDB3;" d="M231.675,374.221c10.357,7.704,12.508,22.339,4.805,32.697c-6.967,9.387-19.639,12.029-29.669,6.722
		c-1.04-0.549-2.057-1.192-3.028-1.917c-10.346-7.692-12.508-22.339-4.805-32.697C206.682,368.668,221.318,366.517,231.675,374.221z
		"/>
</g>
<path d="M123.7,78.813c-11.215,11.213-14.445,30.452-8.866,52.785c5.599,22.41,19.496,45.564,39.128,65.196
	c28.62,28.62,60.623,41.726,85.415,41.726c13.614,0,25.057-3.955,32.566-11.463c11.214-11.214,14.445-30.453,8.866-52.786
	c-5.599-22.41-19.496-45.564-39.128-65.196c-19.633-19.633-42.787-33.529-65.196-39.128C154.151,64.368,134.913,67.599,123.7,78.813
	z M229.281,121.476c17.418,17.417,29.676,37.677,34.516,57.048c3.991,15.973,2.401,29.482-4.254,36.136
	c-6.652,6.654-20.162,8.243-36.135,4.252c-19.369-4.84-39.629-17.098-57.047-34.514s-29.676-37.677-34.516-57.048
	c-1.232-4.931-1.929-9.624-2.112-13.957c23.278,6.823,46.573,21.166,66.518,41.112c13.819,13.819,25.285,29.748,33.158,46.069
	c1.512,3.133,4.642,4.96,7.902,4.96c1.279,0,2.576-0.281,3.804-0.873c4.36-2.104,6.191-7.345,4.087-11.706
	c-8.719-18.071-21.359-35.654-36.552-50.848c-22.545-22.545-49.193-38.64-75.939-46.07c0.925-1.856,2.047-3.484,3.385-4.822
	c4.234-4.234,11.241-6.418,19.896-6.418c4.945,0,10.431,0.713,16.24,2.165C191.604,91.8,211.864,104.058,229.281,121.476z"/>
<path d="M502.749,413.19L310.18,220.622c4.398-14.099,4.916-30.412,1.327-48.036c-6.055-29.738-23.209-59.936-48.304-85.031
	c-21.544-21.543-46.587-37.131-72.419-45.076c-4.625-1.424-9.533,1.175-10.958,5.802c-1.424,4.628,1.175,9.534,5.803,10.958
	c22.779,7.007,45.926,21.466,65.175,40.716c22.689,22.689,38.145,49.726,43.521,76.13c5.11,25.095,0.402,46.437-13.259,60.097
	c-13.658,13.66-35.003,18.366-60.095,13.259c-26.405-5.377-53.443-20.833-76.13-43.521c-22.689-22.689-38.145-49.726-43.521-76.13
	c-5.111-25.096-0.402-46.439,13.256-60.098c10.958-10.959,26.852-16.185,45.987-15.115c4.821,0.275,8.973-3.429,9.243-8.264
	c0.27-4.834-3.43-8.973-8.264-9.243c-24.24-1.36-44.777,5.636-59.365,20.224c-6.404,6.404-11.33,13.961-14.742,22.436
	c-16.531,26.333-46.63,76.967-66.708,126.487c-25.729,63.46-27.512,106.899-5.299,129.113c10.288,10.287,25.12,15.428,44.395,15.427
	c22.342-0.001,50.65-6.913,84.72-20.725c46.733-18.947,94.515-46.851,121.88-63.821l48.319,48.319
	c1.713,1.711,3.957,2.568,6.2,2.568c2.243,0,4.488-0.856,6.2-2.568c3.424-3.424,3.424-8.976,0-12.398l-44.683-44.683
	c3.965-2.545,7.645-5.504,11.008-8.867c3.363-3.363,6.321-7.042,8.866-11.007L490.35,425.59c2.655,2.655,4.116,6.184,4.116,9.936
	c0,3.754-1.461,7.283-4.116,9.938c-5.48,5.48-14.396,5.48-19.875,0L348.179,323.167c-3.424-3.424-8.974-3.425-12.399,0
	c-3.424,3.424-3.424,8.976,0,12.398l122.296,122.296c6.158,6.158,14.248,9.237,22.336,9.237c8.088,0,16.178-3.079,22.335-9.237
	c5.967-5.967,9.253-13.898,9.253-22.336C512,427.088,508.714,419.157,502.749,413.19z M59.736,333.387
	c-13.695,0-24.672-3.218-31.911-10.457c-13.33-13.329-13.031-39.313-4.118-71.618c8.388,15.334,19.423,29.975,32.591,43.144
	c13.16,13.159,27.793,24.19,43.116,32.576C84.676,331.095,71.238,333.387,59.736,333.387z M123.761,319.171
	c-19.561-7.815-38.537-20.589-55.062-37.114c-16.534-16.534-29.314-35.523-37.127-55.094c5.126-14.038,11.449-28.851,18.64-44.026
	c7.778,25.408,23.453,50.834,45.115,72.496c5.193,5.191,10.686,10.115,16.324,14.636c1.618,1.296,3.554,1.926,5.478,1.926
	c2.569,0,5.116-1.125,6.847-3.285c3.028-3.778,2.42-9.296-1.358-12.325c-5.14-4.12-10.152-8.612-14.891-13.351
	c-25.542-25.544-41.821-56.49-44.962-85.308c6.18-11.87,12.769-23.821,19.621-35.672c0.395,3.678,0.976,7.425,1.752,11.234
	c6.055,29.738,23.209,59.935,48.304,85.03s55.293,42.25,85.031,48.305c3.811,0.776,7.56,1.357,11.24,1.752
	c-11.852,6.85-23.805,13.439-35.676,19.619c-14.12-1.558-29.267-6.436-43.981-14.189c-4.287-2.257-9.587-0.611-11.844,3.671
	c-2.257,4.284-0.613,9.587,3.671,11.843c8.888,4.682,17.964,8.437,26.974,11.2C152.651,307.718,137.821,314.04,123.761,319.171z"/>
<path d="M364.039,139.216c2.496,0.595,5.014,0.888,7.515,0.888c0.281,0,0.559-0.022,0.839-0.029
	c0.185,4.322,1.451,8.55,3.779,12.336c3.597,5.852,9.26,9.953,15.941,11.546c1.997,0.476,4.013,0.711,6.014,0.711
	c4.699,0,9.319-1.296,13.421-3.819c5.369-3.3,9.237-8.349,11.075-14.317c1.46,0.251,2.925,0.38,4.383,0.38
	c4.699,0,9.319-1.296,13.421-3.819c5.853-3.598,9.954-9.26,11.547-15.942c1.593-6.682,0.49-13.585-3.108-19.437
	c-2.33-3.79-5.534-6.829-9.312-8.944c5.267-9.769,5.349-22.009-0.871-32.124c-4.496-7.313-11.568-12.437-19.918-14.428
	c-8.351-1.993-16.975-0.613-24.288,3.883c-7.833,4.816-12.866,12.475-14.608,20.837c-0.305-0.082-0.609-0.17-0.919-0.243
	c-8.351-1.991-16.975-0.613-24.286,3.883c-7.313,4.496-12.437,11.569-14.429,19.92c-1.991,8.35-0.611,16.975,3.885,24.287
	C348.615,132.101,355.69,137.224,364.039,139.216z M406.038,140.84c-0.507,2.126-1.812,3.927-3.675,5.072
	c-1.862,1.144-4.058,1.495-6.184,0.989c-2.125-0.507-3.927-1.812-5.072-3.674s-1.495-4.059-0.989-6.185
	c0.506-2.126,1.812-3.928,3.675-5.072c1.305-0.803,2.775-1.216,4.269-1.216c0.637,0,1.279,0.075,1.914,0.227
	c2.126,0.507,3.928,1.812,5.073,3.674C406.193,136.518,406.545,138.715,406.038,140.84z M434.917,123.084
	c-0.507,2.126-1.812,3.928-3.675,5.072c-1.861,1.144-4.056,1.495-6.184,0.989c-2.125-0.507-3.927-1.812-5.072-3.674
	c-1.144-1.862-1.495-4.059-0.989-6.185c0.506-2.126,1.812-3.927,3.675-5.072c1.861-1.144,4.056-1.495,6.184-0.989
	c2.125,0.507,3.927,1.812,5.072,3.674C435.073,118.761,435.424,120.958,434.917,123.084z M403.659,71.041
	c2.379-1.462,5.017-2.159,7.624-2.159c4.909,0,9.707,2.47,12.461,6.95c4.215,6.858,2.068,15.869-4.791,20.086
	c-6.861,4.217-15.869,2.068-20.087-4.791C394.653,84.267,396.802,75.256,403.659,71.041z M357.291,104.57
	c0.905-3.793,3.233-7.008,6.556-9.05c2.329-1.432,4.952-2.168,7.621-2.168c1.136,0,2.281,0.133,3.415,0.404
	c3.793,0.905,7.007,3.232,9.05,6.555c4.215,6.858,2.068,15.869-4.791,20.086c-3.323,2.042-7.24,2.671-11.035,1.765
	c-3.793-0.905-7.007-3.232-9.05-6.556C357.014,112.282,356.387,108.363,357.291,104.57z"/>
<path d="M274.409,395.078c-6.889-5.122-15.362-7.256-23.851-6.007c-0.314,0.047-0.624,0.105-0.935,0.161
	c-0.998-8.483-5.338-16.556-12.715-22.044c-14.221-10.572-34.391-7.607-44.963,6.609c-5.124,6.888-7.257,15.358-6.009,23.851
	c0.415,2.825,1.195,5.535,2.295,8.089c-3.86,1.737-7.347,4.441-10.049,8.073c-8.461,11.379-6.088,27.522,5.29,35.984
	c4.483,3.335,9.805,5.086,15.293,5.086c0.714,0,1.432-0.037,2.15-0.097c1.262,5.892,4.557,11.372,9.76,15.241
	c4.601,3.422,9.979,5.071,15.315,5.071c7.86,0,15.628-3.583,20.669-10.361c2.655-3.569,4.288-7.671,4.851-11.962
	c1.21,0.139,2.427,0.234,3.654,0.234c1.573,0,3.157-0.116,4.743-0.348c8.493-1.248,15.991-5.729,21.112-12.617
	c5.124-6.888,7.257-15.358,6.009-23.851C285.777,407.698,281.296,400.2,274.409,395.078z M206.013,384.261
	c2.862-3.848,7.271-5.882,11.734-5.882c3.029,0,6.082,0.938,8.695,2.879c6.459,4.805,7.807,13.969,3.002,20.43
	c-2.326,3.129-5.733,5.165-9.592,5.733c-3.861,0.567-7.707-0.402-10.838-2.73c-3.131-2.327-5.166-5.734-5.733-9.593
	S203.686,387.392,206.013,384.261z M193.935,435.724c-3.62-2.692-4.376-7.829-1.683-11.449c1.605-2.157,4.075-3.297,6.578-3.297
	c1.697,0,3.409,0.525,4.872,1.613c1.753,1.305,2.896,3.215,3.212,5.376c0.318,2.163-0.224,4.319-1.529,6.073
	c-0.001,0-0.001,0-0.001,0c-1.303,1.753-3.214,2.896-5.376,3.212C197.85,437.571,195.69,437.028,193.935,435.724z M232.588,454.271
	c-2.695,3.62-7.83,4.377-11.45,1.683c-3.62-2.693-4.376-7.829-1.683-11.449c2.695-3.62,7.829-4.377,11.45-1.683
	c1.753,1.305,2.896,3.215,3.212,5.376C234.435,450.36,233.891,452.517,232.588,454.271z M266.947,429.578
	c-2.326,3.129-5.733,5.166-9.592,5.733c-3.858,0.567-7.707-0.402-10.838-2.73c-6.459-4.805-7.808-13.969-3.002-20.429l0,0
	c2.326-3.129,5.733-5.165,9.592-5.733c0.72-0.105,1.439-0.158,2.154-0.158c3.115,0,6.137,0.995,8.683,2.887
	c3.131,2.327,5.166,5.734,5.733,9.593S269.274,426.448,266.947,429.578z"/>
<g>
</g>
<g>
</g>
<g>
</g>
<g>
</g>
<g>
</g>
<g>
</g>
<g>
</g>
<g>
</g>
<g>
</g>
<g>
</g>
<g>
</g>
<g>
</g>
<g>
</g>
<g>
</g>
<g>
</g>
</svg>
