<?xml version="1.0" encoding="UTF-8" standalone="no"?>
<svg
   xmlns:dc="http://purl.org/dc/elements/1.1/"
   xmlns:cc="http://creativecommons.org/ns#"
   xmlns:rdf="http://www.w3.org/1999/02/22-rdf-syntax-ns#"
   xmlns:svg="http://www.w3.org/2000/svg"
   xmlns="http://www.w3.org/2000/svg"
   xmlns:sodipodi="http://sodipodi.sourceforge.net/DTD/sodipodi-0.dtd"
   xmlns:inkscape="http://www.inkscape.org/namespaces/inkscape"
   version="1.1"
   id="Layer_1"
   x="0px"
   y="0px"
   viewBox="0 0 512 512"
   style="enable-background:new 0 0 512 512;"
   xml:space="preserve"
   sodipodi:docname="available.svg"
   inkscape:version="1.0.1 (3bc2e813f5, 2020-09-07)"><metadata
   id="metadata81"><rdf:RDF><cc:Work
       rdf:about=""><dc:format>image/svg+xml</dc:format><dc:type
         rdf:resource="http://purl.org/dc/dcmitype/StillImage" /></cc:Work></rdf:RDF></metadata><defs
   id="defs79" /><sodipodi:namedview
   pagecolor="#ffffff"
   bordercolor="#666666"
   borderopacity="1"
   objecttolerance="10"
   gridtolerance="10"
   guidetolerance="10"
   inkscape:pageopacity="0"
   inkscape:pageshadow="2"
   inkscape:window-width="1523"
   inkscape:window-height="845"
   id="namedview77"
   showgrid="false"
   inkscape:zoom="1.2167969"
   inkscape:cx="256"
   inkscape:cy="256"
   inkscape:window-x="234"
   inkscape:window-y="95"
   inkscape:window-maximized="0"
   inkscape:current-layer="Layer_1" />
<g
   id="g6">
	<circle
   style="fill:#4D4D4D;"
   cx="407.485"
   cy="108.688"
   r="24.204"
   id="circle2" />
	<circle
   style="fill:#4D4D4D;"
   cx="223.535"
   cy="427.974"
   r="24.204"
   id="circle4" />
</g>
<path
   style="fill:#9CE0F2;"
   d="M267.706,255.309l-0.012,0.012c-13.687,8.604-33.171,20.428-55.487,32.675  c-6.644,3.643-13.53,7.322-20.598,10.964c-8.786,4.538-17.838,9.016-27.012,13.3c-7.358,3.437-14.789,6.741-22.219,9.839  c-8.726,3.655-17.439,7.019-26.007,9.984c-8.629,3.001-17.124,5.579-25.342,7.636c-32.845,8.241-61.454,8.133-77.61-8.024  c-16.156-16.156-16.265-44.765-8.024-77.61c2.057-8.229,4.647-16.713,7.636-25.354c2.965-8.568,6.329-17.282,9.984-26.007  c3.098-7.419,6.402-14.849,9.839-22.207c4.284-9.173,8.762-18.226,13.3-27.012c3.643-7.068,7.322-13.954,10.976-20.598  c12.235-22.316,24.059-41.8,32.675-55.487L267.706,255.309z"
   id="path8" />
<path
   style="fill:#e261a5;fill-opacity:1"
   d="M505.08,425.141L301.648,221.709l-0.019,0.019c14.746-36.709-2.141-91.303-44.538-133.701  c-51.14-51.14-120.027-65.167-153.864-31.33s-19.811,102.724,31.33,153.864c42.387,42.387,96.966,59.277,133.673,44.551  l203.44,203.44c9.227,9.227,24.185,9.227,33.411,0l0,0C514.306,449.326,514.306,434.367,505.08,425.141z"
   id="path10" />
<path
   style="fill:#71B2BC;"
   d="M266.14,219.611c-18.44,18.44-67.865,10.109-109.304-31.33s-49.771-90.864-31.331-109.304  c18.441-18.441,67.865-10.109,109.305,31.33C276.249,151.745,284.581,201.171,266.14,219.611z"
   id="path12" />
<g
   id="g20">
	<path
   style="fill:#8BCAD8;"
   d="M116.371,332.084c-8.629,3.001-17.124,5.579-25.342,7.636   c-17.221-9.706-33.668-22.243-48.529-37.105c-14.849-14.849-27.399-31.296-37.105-48.529c2.057-8.229,4.647-16.713,7.636-25.354   c9.403,21.699,23.913,42.659,42.296,61.054C73.724,308.17,94.672,322.668,116.371,332.084z"
   id="path14" />
	<path
   style="fill:#8BCAD8;"
   d="M164.597,312.261c-7.358,3.437-14.789,6.741-22.219,9.839   c-24.603-12.259-48.142-29.371-69.066-50.296c-20.936-20.936-38.049-44.475-50.296-69.078c3.098-7.419,6.402-14.849,9.839-22.207   c11.412,27.895,29.735,54.894,53.297,78.445C109.703,282.526,136.702,300.849,164.597,312.261z"
   id="path16" />
	<path
   style="fill:#8BCAD8;"
   d="M212.206,287.996c-6.644,3.643-13.53,7.322-20.598,10.964c-30.376-13.99-59.53-34.575-85.198-60.256   c-25.68-25.668-46.266-54.822-60.256-85.198c3.643-7.068,7.322-13.954,10.976-20.598c12.852,33.05,34.273,65.133,62.107,92.967   S179.156,275.132,212.206,287.996z"
   id="path18" />
</g>
<g
   id="g26">
	<path
   style="fill:#FFA91F;"
   d="M447.989,107.233c5.071,8.254,2.493,19.061-5.761,24.143c-8.254,5.071-19.061,2.493-24.131-5.761   c-5.083-8.254-2.505-19.061,5.748-24.143c0.714-0.436,1.452-0.823,2.203-1.15C433.939,96.886,443.354,99.693,447.989,107.233z"
   id="path22" />
	<path
   style="fill:#FFA91F;"
   d="M418.097,125.616c5.071,8.254,2.493,19.061-5.761,24.143c-8.254,5.071-19.061,2.493-24.143-5.761   c-4.466-7.273-3.001-16.531,3.074-22.11c0.811-0.75,1.706-1.428,2.687-2.033C402.207,114.785,413.014,117.362,418.097,125.616z"
   id="path24" />
</g>
<g
   id="g32">
	<path
   style="fill:#F94848;"
   d="M425.842,99.851c-10.747,4.32-23.345,0.399-29.613-9.79c-6.995-11.388-3.449-26.285,7.939-33.28   c11.376-6.995,26.285-3.449,33.28,7.939c6.995,11.376,3.437,26.273-7.939,33.28C428.323,98.725,427.089,99.342,425.842,99.851z"
   id="path28" />
	<path
   style="fill:#F94848;"
   d="M396.229,90.06c6.426,10.444,3.957,23.865-5.313,31.417c-0.823,0.666-1.694,1.295-2.626,1.864   c-11.376,6.995-26.273,3.437-33.28-7.939c-6.995-11.388-3.437-26.285,7.939-33.28C374.336,75.126,389.234,78.672,396.229,90.06z"
   id="path30" />
</g>
<g
   id="g38">
	<path
   style="fill:#FFD41D;"
   d="M237.176,443.537c6.305,6.027,7.261,15.95,1.924,23.127c-5.785,7.782-16.773,9.403-24.543,3.618   c-7.782-5.785-9.403-16.785-3.618-24.555c5.785-7.782,16.773-9.391,24.555-3.606C236.087,442.569,236.656,443.04,237.176,443.537z"
   id="path34" />
	<path
   style="fill:#FFD41D;"
   d="M207.333,421.172c7.782,5.785,9.391,16.773,3.606,24.555c-5.785,7.769-16.773,9.391-24.555,3.606   c-7.769-5.785-9.391-16.773-3.606-24.555c5.204-6.983,14.607-9.004,22.11-5.131C205.723,420.083,206.546,420.591,207.333,421.172z"
   id="path36" />
</g>
<g
   id="g44">
	<path
   style="fill:#3EDDB3;"
   d="M269.694,407.255c10.722,7.975,12.949,23.127,4.986,33.849   c-7.975,10.722-23.127,12.949-33.849,4.974c-1.198-0.896-2.287-1.876-3.268-2.929c-7.83-8.375-8.798-21.396-1.718-30.921   C243.82,401.507,258.984,399.28,269.694,407.255z"
   id="path40" />
	<path
   style="fill:#3EDDB3;"
   d="M230.871,378.38c10.722,7.975,12.949,23.127,4.974,33.849c-7.213,9.718-20.331,12.453-30.715,6.959   c-1.077-0.569-2.13-1.234-3.134-1.985c-10.71-7.963-12.949-23.127-4.974-33.849C204.997,372.631,220.149,370.405,230.871,378.38z"
   id="path42" />
</g>
<g
   id="g46">
</g>
<g
   id="g48">
</g>
<g
   id="g50">
</g>
<g
   id="g52">
</g>
<g
   id="g54">
</g>
<g
   id="g56">
</g>
<g
   id="g58">
</g>
<g
   id="g60">
</g>
<g
   id="g62">
</g>
<g
   id="g64">
</g>
<g
   id="g66">
</g>
<g
   id="g68">
</g>
<g
   id="g70">
</g>
<g
   id="g72">
</g>
<g
   id="g74">
</g>
</svg>
