<svg id="Flat" height="512" viewBox="0 0 512 512" width="512" xmlns="http://www.w3.org/2000/svg"><rect fill="#b6b9ba" height="320" rx="32" width="416" x="72" y="112"/><path d="m488 400a32 32 0 0 1 -32 32h-352a32 32 0 0 1 -32-32z" fill="#eb423f"/><path d="m456 112h-352a32 32 0 0 0 -32 32v160h-48v24a24.006 24.006 0 0 0 24 24h416a24.006 24.006 0 0 0 24-24v-184a32 32 0 0 0 -32-32z" fill="#e9eef2"/><path d="m120 208h112v96h-112z" fill="#6ed2f0"/><g fill="#9aa3a8"><path d="m280 208h32v32h-32z"/><path d="m280 272h32v32h-32z"/><path d="m344 208h32v32h-32z"/><path d="m344 272h32v32h-32z"/><path d="m408 208h32v32h-32z"/><path d="m408 272h32v32h-32z"/></g><path d="m464 352a24.006 24.006 0 0 1 -24-24v-24h-416v24a24.006 24.006 0 0 0 24 24z" fill="#d0d2d4"/><path d="m72 176v-32a32 32 0 0 1 32-32h352a32 32 0 0 1 32 32v32z" fill="#eb423f"/><path d="m120 80h32v64h-32z" fill="#d0d2d4"/><path d="m184 80h32v64h-32z" fill="#d0d2d4"/><path d="m344 80h32v64h-32z" fill="#d0d2d4"/><path d="m408 80h32v64h-32z" fill="#d0d2d4"/></svg>