<svg id="Capa_1" enable-background="new 0 0 490.1 490.1" height="512" viewBox="0 0 490.1 490.1" width="512" xmlns="http://www.w3.org/2000/svg"><g><path d="m292.455 489.491-221.06-46.597c-15.177-3.199-24.887-18.096-21.687-33.272l80.164-380.302c3.199-15.177 18.096-24.887 33.272-21.687l221.06 46.597c15.177 3.199 24.887 18.096 21.687 33.272l-80.164 380.301c-3.199 15.177-18.095 24.887-33.272 21.688z" fill="#f9eaca"/><path d="m372.009 80.911-31.43 149.07-48.52 230.17c-2.467 11.505-12.594 22.112-26.52 22.69-2.42.13-4.9-.06-7.39-.58-9.024-1.906-24.631-5.192-33.7-7.1l-17.52-3.69-168.79-35.59c-3.09-.65-5.96-1.78-8.54-3.3-10.35-6.04-16.17-18.22-13.56-30.61l79.95-379.24c3.26-15.47 18.43-25.37 33.9-22.11l197.59 41.65 22.42 4.73c15.47 3.25 25.36 18.44 22.11 33.91z" fill="#d8aa5e"/><path d="m341.019 72.881-31.43 149.07-48.52 230.17c-2.39 11.34-11.18 22.36-21.79 26.16l-11.51-2.42-3.32-.7-186.31-39.28c-3.09-.65-5.96-1.78-8.54-3.3-10.35-6.04-16.17-18.22-13.56-30.61l79.95-379.24c3.26-15.47 18.43-25.37 33.9-22.11l197.59 41.65c10.34 6.06 16.13 18.25 13.54 30.61z" fill="#e9b665"/><path d="m340.579 229.981-48.52 230.17c-2.467 11.507-12.593 22.109-26.52 22.69-2.42.13-4.9-.06-7.39-.58-9.024-1.906-24.631-5.192-33.7-7.1l-17.52-3.69c17.66-16.92 20.84-46.48 20.84-46.48v-195.01z" fill="#d8aa5e"/><path d="m136.399 70.101-25.35 120.27-3.1 14.69-40.05 189.99c-1.82 8.61-10.26 14.12-18.87 12.3l-17.08-3.6c-8.61-1.81-14.12-10.26-12.31-18.87l40.12-190.3 3.09-14.68 25.29-119.97c1.81-8.61 10.26-14.12 18.87-12.3l17.08 3.6c8.61 1.81 14.12 10.26 12.31 18.87z" fill="#d8aa5e"/><path d="m165.226 76.762-68.495 324.957c-1.814 8.601-10.263 14.115-18.864 12.301l-17.091-3.608c-.714-.163-1.326-.303-3.475-1.162-6.553-3.067-10.385-10.324-8.826-17.702l68.495-324.957c1.58-7.49 8.204-12.647 15.572-12.647h.01c1.09 0 2.181.112 3.292.346l17.081 3.608c8.612 1.814 14.115 10.262 12.301 18.864z" fill="#0ab69f"/><path d="m141.378 71.656-68.495 324.947c-1.58 7.491-8.204 12.647-15.572 12.647h-.01c-6.553-3.067-10.385-10.324-8.826-17.702l68.495-324.957c1.58-7.49 8.204-12.647 15.572-12.647h.01c6.554 3.057 10.396 10.323 8.826 17.712z" fill="#5de1c4"/><path d="m109.113 342.987-12.382 58.732c-1.814 8.601-10.263 14.115-18.864 12.301l-17.091-3.608c-5.672-1.196-12.343-6.449-12.637-14.981-.051-1.274.061-2.578.336-3.883l12.382-58.732 24.388 5.136z" fill="#01998d"/><path d="m85.245 337.953-12.362 58.651c-1.58 7.491-8.204 12.647-15.572 12.647-4.194-2.019-8.892-6.655-9.172-13.819-.051-1.274.061-2.578.336-3.883l12.382-58.732z" fill="#0ab69f"/><path d="m299.139 238.941c-.77 3.5-3.87 5.9-7.32 5.9-.53 0-1.07-.06-1.61-.17l-182.26-39.61-48.19-10.48 3.09-14.68c.02 0 .03.01.05.01l48.15 10.46 182.36 39.64c4.04.88 6.61 4.88 5.73 8.93z" fill="#bb5d4c"/><path d="m172.011 191.618c-.475 0-.957-.045-1.44-.14-4.066-.791-6.721-4.728-5.93-8.794l14.064-72.308c.007-.038.015-.076.023-.114 1.004-4.765-2.055-9.458-6.819-10.462l-11.043-2.328c-4.053-.854-6.646-4.833-5.792-8.886.855-4.053 4.832-6.644 8.886-5.792l11.043 2.328c12.836 2.706 21.086 15.334 18.417 28.169l-14.054 72.257c-.698 3.582-3.837 6.07-7.355 6.07z" fill="#596c76"/><path d="m285.494 130.633c-.513 0-1.033-.053-1.555-.163l-59.836-12.613c-4.053-.854-6.646-4.833-5.792-8.886.855-4.053 4.835-6.646 8.886-5.792l59.836 12.613c4.053.854 6.646 4.833 5.792 8.886-.744 3.532-3.86 5.955-7.331 5.955z" fill="#bb5d4c"/><path d="m331.82 140.398c-.513 0-1.033-.053-1.555-.163l-15.442-3.255c-4.053-.854-6.646-4.833-5.792-8.886s4.835-6.645 8.886-5.792l15.442 3.255c4.053.854 6.646 4.833 5.792 8.886-.745 3.532-3.861 5.955-7.331 5.955z" fill="#bb5d4c"/><path d="m462.2 449.088h-192.108c-6.894 0-12.483-5.589-12.483-12.483v-194.146c0-6.894 5.589-12.483 12.483-12.483h192.108c6.894 0 12.483 5.589 12.483 12.483v194.146c0 6.894-5.589 12.483-12.483 12.483z" fill="#eaf6ff"/><path d="m448.43 268.281v125.178c0 6.521-5.286 11.807-11.807 11.807h-140.954c-6.521 0-11.807-5.286-11.807-11.807v-125.178c0-6.521 5.286-11.807 11.807-11.807h140.954c6.521 0 11.807 5.286 11.807 11.807z" fill="#b3ceec"/><path d="m448.43 331.4v73.866h-164.568v-69.158l72.602-47.022h25.478z" fill="#7a6d79"/><path d="m448.43 351.711v53.555h-164.568v-69.158c47.94 4.78 164.568 15.603 164.568 15.603z" fill="#bb5d4c"/><path d="m448.43 351.711v57.916c0 6.814-5.524 12.339-12.339 12.339h-139.89c-6.814 0-12.339-5.524-12.339-12.339v-27.384z" fill="#0473ce"/><circle cx="311.905" cy="284.055" fill="#eaf6ff" r="7.484"/></g></svg>