<?xml version="1.0" encoding="iso-8859-1"?>
<!-- Generator: Adobe Illustrator 19.0.0, SVG Export Plug-In . SVG Version: 6.00 Build 0)  -->
<svg version="1.1" id="Capa_1" xmlns="http://www.w3.org/2000/svg" xmlns:xlink="http://www.w3.org/1999/xlink" x="0px" y="0px"
	 viewBox="0 0 512 512" style="enable-background:new 0 0 512 512;" xml:space="preserve">
<path style="fill:#6FCCFF;" d="M512,286.265H0v135.793c0,36.819,29.847,66.666,66.666,66.666h378.668
	c36.819,0,66.666-29.847,66.666-66.666V286.265z"/>
<path style="fill:#F9CD46;" d="M58.402,389.417c0,42.694,88.471,37.073,197.599,37.073c109.139,0,197.599,5.622,197.599-37.073
	c0-39.748-76.653-107.352-175.291-116.505l-39.654-0.408c-13.531,0.972-26.676,3.062-39.298,6.05
	c-31.524,7.44-59.736,20.48-82.505,35.693h-0.01C80.752,338.364,58.402,367.955,58.402,389.417z"/>
<g>
	<path style="fill:#DB9E00;" d="M110.647,389.417c0-21.462,22.35-51.053,58.441-75.17h0.01
		c22.768-15.214,50.98-28.254,82.505-35.693c9.879-2.338,20.083-4.118,30.537-5.251c-1.274-0.138-2.548-0.273-3.83-0.392
		l-39.654-0.408c-13.531,0.972-26.676,3.062-39.298,6.05c-31.524,7.44-59.736,20.48-82.505,35.693h-0.01
		c-36.091,24.116-58.441,53.707-58.441,75.17c0,38.155,70.662,37.722,163.578,37.198
		C156.078,425.794,110.647,420.01,110.647,389.417z"/>
	<path style="fill:#DB9E00;" d="M308.246,426.49c-8.857,0-17.573,0.038-26.121,0.083c21.307,0.113,41.543,0.275,60.147,0.044
		C331.217,426.554,319.85,426.49,308.246,426.49z"/>
	<path style="fill:#DB9E00;" d="M116.853,314.248c75.044-5.496,118.156,21.755,118.156,21.755h45.077
		c-17.366-25.777-51.743-44.972-80.728-57.448C167.834,285.994,139.622,299.034,116.853,314.248z"/>
</g>
<path style="fill:#92796C;" d="M280.088,336.005h-45.077c4.681-57.459,5.381-115.596,3.709-161.749v-0.01
	c-0.355-9.728-0.805-18.923-1.358-27.47c-0.846-13.249-1.902-24.931-3.124-34.596l-12.037-20.386l41.284-11.41l1.097,41.137
	c0.794,4.702,1.546,9.54,2.257,14.472C279.169,221.224,280.088,336.005,280.088,336.005z"/>
<g>
	<path style="fill:#58903A;" d="M249.008,86.435c0,0-7.498,23.564,12.853,34.276s86.76,19.28,95.33,117.824
		c0,0,40.81-40.779,10.229-113.578l-53.948-38.994L249.008,86.435z"/>
	<path style="fill:#58903A;" d="M242.63,105.965c0,0-5.226,15.082-21.4,21.4c-28.498,11.132-38.788,60.826-38.788,94.031
		c0,0-36.598-27.2-11.337-108.93l34.222-24.413L242.63,105.965z"/>
</g>
<path style="fill:#7A6054;" d="M266.839,135.992h-0.01c0,0-21.358-4.054-28.108,38.253c-0.899-24.816-2.476-46.163-4.483-62.067
	l-12.037-20.386l41.284-11.41l1.097,41.137C265.376,126.222,266.129,131.06,266.839,135.992z"/>
<g>
	<path style="fill:#7CBA20;" d="M250.997,94.389c-1.18-4.718,1.172-9.631,5.625-11.585c18.028-7.912,65.041-24.571,108.068-6.009
		c54.627,23.564,49.272,83.547,49.272,83.547s-44.852-60.121-140.862-50.653C262.925,110.692,253.476,104.308,250.997,94.389
		L250.997,94.389z"/>
	<path style="fill:#7CBA20;" d="M250.59,94.389c1.18-4.718-1.172-9.631-5.625-11.585c-18.028-7.912-65.041-24.571-108.068-6.009
		c-54.627,23.564-49.272,83.547-49.272,83.547s44.852-60.121,140.862-50.653C238.662,110.692,248.111,104.308,250.59,94.389
		L250.59,94.389z"/>
</g>
<g>
	<path style="fill:#98CA2D;" d="M249.008,91.66c0,0,1.071-52.485,65.338-66.409s80.334,50.343,80.334,50.343
		S342.196,41.317,249.008,91.66z"/>
	<path style="fill:#98CA2D;" d="M252.579,91.66c0,0-1.071-52.485-65.338-66.409s-80.334,50.343-80.334,50.343
		S159.391,41.317,252.579,91.66z"/>
</g>
<g>
	<path style="fill:#FFFFFF;" d="M459.755,465.496h-30.302c-4.328,0-7.837-3.509-7.837-7.837s3.509-7.837,7.837-7.837h30.302
		c4.328,0,7.837,3.509,7.837,7.837S464.083,465.496,459.755,465.496z"/>
	<path style="fill:#FFFFFF;" d="M489.012,317.121h-30.302c-4.328,0-7.837-3.509-7.837-7.837s3.509-7.837,7.837-7.837h30.302
		c4.328,0,7.837,3.509,7.837,7.837S493.34,317.121,489.012,317.121z"/>
	<path style="fill:#FFFFFF;" d="M54.337,336.974H24.036c-4.328,0-7.837-3.509-7.837-7.837s3.509-7.837,7.837-7.837h30.302
		c4.328,0,7.837,3.509,7.837,7.837S58.665,336.974,54.337,336.974z"/>
	<path style="fill:#FFFFFF;" d="M185.994,479.079h-30.302c-4.328,0-7.837-3.509-7.837-7.837s3.509-7.837,7.837-7.837h30.302
		c4.328,0,7.837,3.509,7.837,7.837S190.322,479.079,185.994,479.079z"/>
	<path style="fill:#FFFFFF;" d="M244.508,459.226h-30.302c-4.328,0-7.837-3.509-7.837-7.837s3.509-7.837,7.837-7.837h30.302
		c4.328,0,7.837,3.509,7.837,7.837S248.836,459.226,244.508,459.226z"/>
</g>
<path style="fill:#7A6054;" d="M248.062,336.005h-13.051c4.681-57.459,5.381-115.596,3.709-161.749v-0.01
	c-0.355-9.728-0.805-18.923-1.358-27.47l10.804-8.568C248.167,138.207,253.862,286.833,248.062,336.005z"/>
<g>
</g>
<g>
</g>
<g>
</g>
<g>
</g>
<g>
</g>
<g>
</g>
<g>
</g>
<g>
</g>
<g>
</g>
<g>
</g>
<g>
</g>
<g>
</g>
<g>
</g>
<g>
</g>
<g>
</g>
</svg>
