<svg height="463pt" viewBox="-7 0 463 463.99694" width="463pt" xmlns="http://www.w3.org/2000/svg"><path d="m282.535156 0 165.964844 58.585938-117.175781 331.925781-165.964844-58.585938zm0 0" fill="#f5e7ba"/><path d="m258.566406 67.890625 5.320313-15.089844 7.542969 2.664063-5.320313 15.085937zm0 0" fill="#d3c7a1"/><path d="m403.265625 118.972656-13.710937-4.839844 5.328124-15.085937 13.710938 4.839844zm-27.429687-9.679687-13.738282-4.847657 5.328125-15.089843 13.710938 4.847656zm-27.433594-9.6875-13.710938-4.839844 5.328125-15.089844 13.710938 4.800781zm-27.425782-9.679688-13.71875-4.847656 5.328126-15.082031 13.71875 4.839844zm-27.4375-9.6875-13.710937-4.800781 5.328125-15.089844 13.710938 4.847656zm0 0" fill="#d3c7a1"/><path d="m416.992188 123.804688 5.328124-15.085938 7.542969 2.664062-5.328125 15.085938zm0 0" fill="#d3c7a1"/><path d="m299.820312 311.515625-24.851562-25.734375-35.496094 4.433594 7.984375-22.632813 20.417969-9.761719 39.945312-113.160156 20.414063-9.757812 9.761719 20.414062-39.945313 113.152344 9.757813 20.417969zm0 0" fill="#cdcdcd"/><path d="m346.417969 251.613281-32.390625-28.398437 13.320312-37.722656 27.0625 43.488281zm0 0" fill="#e06661"/><path d="m240.808594 214.332031 43.042968-1.773437 13.320313-37.722656-48.378906 16.863281zm0 0" fill="#e06661"/><path d="m196.800781 231.996094c0 39.765625-32.234375 72-72 72-39.761719 0-72-32.234375-72-72 0-39.761719 32.238281-72 72-72 39.765625 0 72 32.238281 72 72zm0 0" fill="#c0f5f9"/><path d="m.5 111.996094h240c8.835938 0 16 7.164062 16 16v320c0 8.835937-7.164062 16-16 16h-224c-8.839844 0-16-7.164063-16-16zm0 0" fill="#85bc94"/><path d="m124.808594 151.996094c-44.179688 0-80 35.816406-80 80s35.820312 80 80 80c44.183594 0 80-35.816406 80-80-.046875-44.160156-35.835938-79.949219-80-80zm-64 80c.015625-3.269532.285156-6.535156.800781-9.765625l19.785156-4.402344c3.03125-.671875 6.089844-1.230469 9.152344-1.757813-.777344 10.601563-.777344 21.25 0 31.855469-3.0625-.527343-6.121094-1.089843-9.152344-1.761719l-19.785156-4.398437c-.515625-3.230469-.785156-6.496094-.800781-9.769531zm45.96875-18.023438c11.992187-1.070312 24.058594-1.070312 36.050781 0 1.070313 11.992188 1.070313 24.054688 0 36.046875-11.992187 1.074219-24.058594 1.074219-36.050781 0-1.070313-11.992187-1.070313-24.054687 0-36.046875zm52.265625 2.097656c3.0625.527344 6.121093 1.085938 9.152343 1.757813l19.78125 4.402344c1.109376 6.464843 1.109376 13.070312 0 19.535156l-19.78125 4.398437c-3.03125.671876-6.089843 1.234376-9.152343 1.769532.773437-10.609375.773437-21.257813 0-31.863282zm23.535156-11.425781-10.910156-2.398437c-4.800781-1.058594-9.601563-1.898438-14.449219-2.625-.734375-4.847656-1.601562-9.671875-2.632812-14.449219l-2.398438-10.910156c13.316406 6.339843 24.046875 17.066406 30.390625 30.382812zm-48-35.824219 4.398437 19.792969c.675782 3.03125 1.242188 6.085938 1.769532 9.152344-10.605469-.777344-21.257813-.777344-31.863282 0 .527344-3.066406 1.085938-6.121094 1.769532-9.152344l4.398437-19.792969c6.460938-1.097656 13.066407-1.097656 19.527344 0zm-37.121094 5.410157-2.398437 10.910156c-1.054688 4.800781-1.894532 9.601563-2.625 14.449219-4.847656.726562-9.671875 1.597656-14.445313 2.625l-10.914062 2.398437c6.34375-13.3125 17.066406-24.039062 30.375-30.382812zm-30.398437 85.117187 10.910156 2.402344c4.800781 1.054688 9.601562 1.894531 14.449219 2.621094.726562 4.851562 1.601562 9.675781 2.625 14.449218l2.398437 10.914063c-13.320312-6.339844-24.058594-17.070313-30.40625-30.386719zm48 35.824219-4.398438-19.789063c-.683594-3.027343-1.242187-6.089843-1.769531-9.144531 5.296875.382813 10.617187.648438 15.9375.648438 5.316406 0 10.621094-.265625 15.925781-.648438-.527344 3.054688-1.09375 6.117188-1.765625 9.144531l-4.402343 19.789063c-6.460938 1.101563-13.066407 1.101563-19.527344 0zm37.121094-5.40625 2.398437-10.914063c1.0625-4.796874 1.894531-9.597656 2.632813-14.445312 4.839843-.730469 9.671874-1.601562 14.449218-2.625l10.910156-2.398438c-6.347656 13.316407-17.085937 24.042969-30.40625 30.382813zm0 0" fill="#fece2f"/><g fill="#55785f"><path d="m60.808594 375.996094h128v16h-128zm0 0"/><path d="m76.808594 407.996094h96v16h-96zm0 0"/><path d="m116.808594 343.996094h16v16h-16zm0 0"/><path d="m84.808594 343.996094h16v16h-16zm0 0"/><path d="m148.808594 343.996094h16v16h-16zm0 0"/></g><path d="m212.800781 111.996094v-35.199219c.003907-4.964844-2.300781-9.644531-6.234375-12.675781-3.929687-3.027344-9.042968-4.0625-13.84375-2.796875l-192.222656 50.671875zm0 0" fill="#6b9777"/></svg>