<svg height="472pt" viewBox="0 0 472 472" width="472pt" xmlns="http://www.w3.org/2000/svg"><path d="m88 272c0 22.089844-17.910156 40-40 40s-40-17.910156-40-40 17.910156-40 40-40 40 17.910156 40 40zm0 0" fill="#ffcd34"/><path d="m200 312c0 22.089844-17.910156 40-40 40s-40-17.910156-40-40 17.910156-40 40-40 40 17.910156 40 40zm0 0" fill="#ffcd34"/><path d="m112 424c0 22.089844-17.910156 40-40 40s-40-17.910156-40-40 17.910156-40 40-40 40 17.910156 40 40zm0 0" fill="#008fcf"/><g fill="#226c8a"><path d="m56 272c0 4.417969-3.582031 8-8 8s-8-3.582031-8-8 3.582031-8 8-8 8 3.582031 8 8zm0 0"/><path d="m168 312c0 4.417969-3.582031 8-8 8s-8-3.582031-8-8 3.582031-8 8-8 8 3.582031 8 8zm0 0"/><path d="m80 424c0 4.417969-3.582031 8-8 8s-8-3.582031-8-8 3.582031-8 8-8 8 3.582031 8 8zm0 0"/></g><path d="m71.953125 472h-.457031c-39.496094-2.519531-48.296875-32.800781-47.496094-48.433594.28125-18.453125 11.015625-35.144531 27.6875-43.0625l118.105469-38.03125c9.007812-3.304687 16.269531-10.148437 20.101562-18.945312 2.660157-8.445313 2.21875-17.5625-1.238281-25.710938-7.507812-14.980468-25.253906-21.699218-40.800781-15.449218l-80.464844 33.542968c-15.980469 6.519532-34.183594 4.40625-48.246094-5.597656-11.78125-9.273438-18.800781-23.324219-19.144531-38.3125l13.023438-168.640625 15.953124 1.25-12.976562 168.007813c.554688 9.6875 5.140625 18.703124 12.640625 24.863281 9.542969 6.65625 21.804687 8.039062 32.589844 3.671875l80.648437-33.601563c23.214844-9.242187 49.648438.710938 61 22.96875 5.515625 12.175781 6.230469 25.984375 2 38.664063-5.441406 13.125-16.125 23.371094-29.464844 28.265625l-117.597656 37.863281c-10.832031 5.535156-17.695312 16.628906-17.816406 28.792969-.136719 3.277343-.273438 29.597656 32.054688 31.878906l305.351562-16.214844.800781 16zm0 0" fill="#4d4d4d"/><path d="m128.523438 44.988281.953124-15.972656 140.230469 8.398437-.957031 15.96875zm0 0" fill="#4d4d4d"/><path d="m432 358.359375-3.039062-105.503906 15.984374-.609375 3.039063 105.507812zm0 0" fill="#4d4d4d"/><path d="m97.601562 12.054688 11.832032-9.253907 21.375 8.855469 1.839844 14.929688 11.566406 11.566406 14.929687 1.847656 8.855469 21.367188-9.257812 11.847656v16.386718l9.257812 11.832032-8.855469 21.375-14.929687 1.839844-11.566406 11.566406-1.839844 14.929687-21.375 8.855469-11.832032-9.257812h-16.386718l-11.847656 9.257812-21.367188-8.855469-1.839844-14.929687-11.574218-11.566406-14.929688-1.839844-8.855469-21.375 9.253907-11.832032v-16.386718l-9.253907-11.847656 8.855469-21.367188 14.929688-1.839844 11.566406-11.574218 1.847656-14.929688 21.367188-8.855469 11.847656 9.253907zm0 0" fill="#53a2ab"/><path d="m122.632812 81.398438c0 18.355468-14.878906 33.234374-33.234374 33.234374-18.351563 0-33.230469-14.878906-33.230469-33.234374 0-18.351563 14.878906-33.230469 33.230469-33.230469 18.355468 0 33.234374 14.878906 33.234374 33.230469zm0 0" fill="#ffcd34"/><path d="m333.742188 50.550781 25.167968-26.550781 22.167969 7.199219 4.753906 36.28125 15.152344 11.007812 36-6.6875 13.695313 18.855469-17.503907 32.144531 5.792969 17.816407 33.03125 15.726562v23.3125l-33.03125 15.726562-5.792969 17.816407 17.480469 32.144531-13.695312 18.855469-36-6.6875-15.152344 11.007812-4.730469 36.28125-22.167969 7.199219-25.167968-26.550781h-18.734376l-25.167968 26.550781-22.167969-7.199219-4.75-36.28125-15.152344-11.007812-36 6.6875-13.699219-18.855469 17.480469-32.144531-5.789062-17.816407-33.035157-15.726562v-23.3125l33.035157-15.726562 5.789062-17.816407-17.480469-32.144531 13.699219-18.855469 36 6.6875 15.152344-11.007812 4.75-36.28125 22.167969-7.199219 25.167968 26.550781zm0 0" fill="#008fcf"/><path d="m440.367188 353.496094 25.375 7.199218 5.53125 16.617188-16 20.976562-1.847657 9.007813 6.398438 25.597656-11.585938 13.089844-26.160156-3.367187-8.726563 2.902343-18.9375 18.402344-17.148437-3.523437-10.167969-24.398438-6.882812-6.113281-25.375-7.199219-5.527344-16.617188 16-20.972656 1.847656-9.007812-6.398437-25.601563 11.621093-13.097656 26.160157 3.371094 8.730469-2.90625 18.933593-18.398438 17.152344 3.519531 10.167969 24.34375zm0 0" fill="#e2c675"/><path d="m432 392c0 17.671875-14.328125 32-32 32s-32-14.328125-32-32 14.328125-32 32-32 32 14.328125 32 32zm0 0" fill="#53a2ab"/><path d="m392 168c0 39.765625-32.234375 72-72 72s-72-32.234375-72-72 32.234375-72 72-72 72 32.234375 72 72zm0 0" fill="#ffcd34"/><path d="m360 168c0 22.089844-17.910156 40-40 40s-40-17.910156-40-40 17.910156-40 40-40 40 17.910156 40 40zm0 0" fill="#53a2ab"/><path d="m472 16c0 8.835938-7.164062 16-16 16s-16-7.164062-16-16 7.164062-16 16-16 16 7.164062 16 16zm0 0" fill="#fbcc34"/><path d="m216 8c0 4.417969-3.582031 8-8 8s-8-3.582031-8-8 3.582031-8 8-8 8 3.582031 8 8zm0 0" fill="#fbcc34"/></svg>